HIERARCHY
ROOT Hips
{
    OFFSET 0.0 0.0 0.0
    CHANNELS 6 Xposition Yposition Zposition Zrotation Xrotation Yrotation
    JOINT Spine
    {
        OFFSET 0.0 5.0 0.0
        CHANNELS 3 Zrotation Xrotation Yrotation
        JOINT Chest
        {
            OFFSET 0.0 5.0 0.0
            CHANNELS 3 Zrotation Xrotation Yrotation
            JOINT Neck
            {
                OFFSET 0.0 8.0 0.0
                CHANNELS 3 Zrotation Xrotation Yrotation
                JOINT Head
                {
                    OFFSET 0.0 5.0 0.0
                    CHANNELS 3 Zrotation Xrotation Yrotation
                    End Site
                    {
                        OFFSET 0.0 3.0 0.0
                    }
                }
            }
            JOINT LeftShoulder
            {
                OFFSET -5.0 0.0 0.0
                CHANNELS 3 Zrotation Xrotation Yrotation
                JOINT LeftArm
                {
                    OFFSET 0.0 -10.0 0.0
                    CHANNELS 3 Zrotation Xrotation Yrotation
                    JOINT LeftForeArm
                    {
                        OFFSET 0.0 -10.0 0.0
                        CHANNELS 3 Zrotation Xrotation Yrotation
                        End Site
                        {
                            OFFSET 0.0 -3.0 0.0
                        }
                    }
                }
            }
        }
    }
}

MOTION
Frames: 18
Frame Time: 0.033333
960.000000 445.000000 84.173728 0.000000 0.000000 0.000000 0.000000 0.000000 0.000000 23.025492 3.836942 0.000000 180.000000 -7.412453 0.000000 21.801409 -5.960361 -0.000000 158.198591 -7.099661 30.000000 15.945396 4.493199 0.000000 18.000000 -0.168130 0.000000
1691.525230 140.756605 122.062942 0.000000 0.000000 0.000000 0.000000 0.000000 0.000000 -163.376529 3.419654 4.973798 16.623471 -5.208417 4.973798 -171.853121 -3.437435 3.759997 99.744051 -5.066624 29.763441 -171.126653 -3.908358 -3.759997 0.673538 0.470064 0.313953
1636.048050 128.802021 119.276658 0.000000 0.000000 0.000000 0.000000 0.000000 0.000000 157.904128 -13.089605 9.635073 -22.095872 14.748592 9.635073 -171.936471 -3.870539 7.460697 -143.675701 7.678487 29.057495 -173.500805 -4.509730 -7.460697 0.570999 0.466491 0.626666
1578.156967 80.474526 123.362623 0.000000 0.000000 0.000000 0.000000 0.000000 0.000000 -139.519796 0.888801 13.690942 40.480204 -11.838311 13.690942 -174.507724 -3.729812 11.043737 119.111399 0.918091 27.893295 -173.607258 -4.715414 -11.043737 0.461920 0.426153 0.936907
960.418757 444.998421 119.437737 0.000000 0.000000 0.000000 0.000000 0.000000 0.000000 25.077893 12.796683 16.886559 180.000000 -12.054926 16.886559 23.861935 0.582531 14.452610 156.138065 -14.681727 26.289200 17.903699 8.162717 -14.452610 18.000000 -0.267093 1.243449
960.523360 444.997533 125.469908 0.000000 0.000000 0.000000 0.000000 0.000000 0.000000 25.638906 20.885360 19.021130 180.000000 -8.556041 19.021130 24.425035 -8.291197 17.633558 155.574965 -8.458707 24.270510 18.452907 2.122749 -17.633558 18.000000 -0.088082 1.545085
960.627905 444.996447 130.958520 0.000000 0.000000 0.000000 0.000000 0.000000 0.000000 26.219073 24.655422 19.960535 180.000000 -3.194243 19.960535 25.006291 -2.408100 20.536413 154.993709 -0.938042 21.869059 19.024920 -7.402904 -20.536413 18.000000 0.905459 1.840623
1126.242828 420.359820 116.897928 0.000000 0.000000 0.000000 0.000000 0.000000 0.000000 31.410514 2.389057 19.645745 -148.589486 0.120664 19.645745 32.280463 -1.529441 23.115397 -131.603972 -1.434892 19.122720 45.585331 -0.026167 -23.115397 -13.449727 -0.170376 2.128896
1257.895088 650.549197 124.626419 0.000000 0.000000 0.000000 0.000000 0.000000 0.000000 25.073180 12.991050 18.096541 -154.926820 -6.458172 18.096541 46.260945 0.867073 25.329838 -154.651428 -5.570164 16.074804 27.339487 4.735575 -25.329838 -13.619892 0.352429 2.408768
960.941083 444.992008 136.279682 0.000000 0.000000 0.000000 0.000000 0.000000 0.000000 28.072001 -7.921608 15.410265 180.000000 18.991563 15.410265 26.849221 -20.778295 27.144812 153.150779 -1.706040 12.773379 20.864045 -4.973297 -27.144812 18.000000 0.397313 2.679134
1163.815842 547.748709 149.845690 0.000000 0.000000 0.000000 0.000000 0.000000 0.000000 117.162728 -6.151461 11.755705 -62.837272 -1.312578 11.755705 102.363764 -3.312168 28.531695 -47.376450 7.131008 9.270510 104.768601 -7.898921 -28.531695 -6.003489 0.214182 2.938926
961.149372 444.988063 142.453583 0.000000 0.000000 0.000000 0.000000 0.000000 0.000000 29.395983 -23.572298 7.362491 180.000000 21.252049 7.362491 28.146217 -0.660840 29.468618 151.853783 12.735569 5.621439 22.170006 7.076737 -29.468618 18.000000 0.163932 3.187120
1136.717377 590.104480 153.004387 0.000000 0.000000 0.000000 0.000000 0.000000 0.000000 115.752126 0.974505 2.506665 -64.247874 4.441551 2.506665 73.638146 -3.756914 29.940802 -21.842452 3.157958 1.883716 75.369282 -0.466175 -29.940802 -6.767207 -0.757319 3.422736
1163.079758 634.077559 156.025710 0.000000 0.000000 0.000000 0.000000 0.000000 0.000000 132.174340 4.239083 -2.506665 -47.825660 7.483867 -2.506665 94.255711 -2.726411 29.940802 -149.364979 -6.375575 -1.883716 30.021641 5.020271 -29.940802 -5.096180 0.674124 3.644843
961.460830 444.980668 159.010726 0.000000 0.000000 0.000000 0.000000 0.000000 0.000000 31.497152 -19.594685 -7.362491 180.000000 13.867355 -7.362491 30.152455 -9.397380 29.468618 149.847545 -5.494710 -5.621439 24.175589 3.923014 -29.468618 18.000000 0.766493 3.852566
1097.449951 565.089898 167.192991 0.000000 0.000000 0.000000 0.000000 0.000000 0.000000 -119.219568 3.301097 -11.755705 60.780432 -1.849847 -11.755705 -150.180642 -7.502245 28.531695 48.804955 -5.083976 -9.270510 -149.874178 -6.079563 -28.531695 2.713854 0.548288 4.045085
1114.140244 528.302071 153.404197 0.000000 0.000000 0.000000 0.000000 0.000000 0.000000 -142.671523 5.157529 -15.410265 37.328477 -11.444381 -15.410265 -177.395681 -0.193160 27.144812 34.687329 -6.689193 -12.773379 161.894167 2.639822 -27.144812 -0.910956 -0.028940 4.221640
1116.433640 479.728639 161.315890 0.000000 0.000000 0.000000 0.000000 0.000000 0.000000 -102.267481 -8.308815 -18.096541 77.732519 4.143182 -18.096541 -163.695626 1.116777 25.329838 38.575767 3.698497 -16.074804 -176.001122 -1.337662 -25.329838 0.706594 0.087378 4.381533
